<?xml version="1.0" standalone="no"?>
<!DOCTYPE svg PUBLIC "-//W3C//DTD SVG 20010904//EN"
 "http://www.w3.org/TR/2001/REC-SVG-20010904/DTD/svg10.dtd">
<svg version="1.0" xmlns="http://www.w3.org/2000/svg"
 width="640.000000pt" height="640.000000pt" viewBox="0 0 640.000000 640.000000"
 preserveAspectRatio="xMidYMid meet">
<g transform="translate(0.000000,640.000000) scale(0.100000,-0.100000)"
fill="#000000" stroke="none">
<path d="M0 3200 l0 -3200 3200 0 3200 0 0 3200 0 3200 -3200 0 -3200 0 0
-3200z m2650 2896 c0 -3 -4 -8 -10 -11 -5 -3 -10 -1 -10 4 0 6 5 11 10 11 6 0
10 -2 10 -4z m1220 -971 c0 -8 -5 -17 -11 -21 -16 -9 -30 18 -17 33 12 15 28
8 28 -12z m-2080 -857 c0 -18 -2 -20 -9 -8 -6 8 -7 18 -5 22 9 14 14 9 14 -14z
m781 -155 c13 -16 12 -17 -3 -4 -10 7 -18 15 -18 17 0 8 8 3 21 -13z m1353 1
c3 -8 2 -12 -4 -9 -6 3 -10 10 -10 16 0 14 7 11 14 -7z m-1273 -23 c7 11 9 10
9 -3 0 -10 5 -19 10 -19 6 -1 14 -2 19 -3 16 -2 92 -77 86 -86 -3 -5 0 -12 6
-16 8 -4 9 -3 5 4 -13 22 7 12 32 -15 13 -16 22 -23 18 -16 -3 6 -3 19 0 28 6
15 8 15 19 -4 20 -38 8 -175 -50 -596 l-6 -40 50 49 c28 28 54 47 58 43 4 -4
6 -28 4 -52 -1 -33 2 -47 14 -51 8 -4 16 -19 16 -38 l2 -31 6 35 c4 21 9 30
14 23 5 -7 23 -10 50 -7 76 9 107 10 107 2 0 -4 7 -8 15 -8 8 0 15 -6 15 -13
0 -8 11 -27 25 -43 l24 -28 4 144 c1 80 3 -134 4 -475 0 -341 -2 -714 -6 -830
-6 -204 -7 -212 -35 -270 -15 -33 -35 -68 -44 -77 -8 -10 -12 -18 -8 -18 4 0
-7 -19 -26 -42 -43 -56 -55 -68 -66 -68 -15 0 -62 26 -57 32 3 2 -2 5 -10 5
-8 0 -15 -4 -15 -9 0 -4 -5 -8 -12 -8 -6 0 -26 -11 -44 -25 -35 -27 -49 -32
-38 -13 5 8 2 9 -11 4 -18 -7 -18 -6 -1 13 29 32 2 32 -58 0 -61 -33 -90 -33
-36 -1 20 12 27 22 20 27 -6 4 -18 1 -27 -7 -10 -8 -14 -8 -10 -1 6 9 -1 9
-25 2 -70 -21 -178 -49 -185 -49 -5 1 4 8 20 16 15 8 27 19 27 24 0 5 8 11 18
13 9 3 1 6 -18 7 -19 1 -29 4 -22 7 21 8 13 21 -10 16 -23 -5 -23 -5 -3 10 23
19 11 21 -33 6 -17 -6 -45 -9 -64 -7 -33 3 -33 3 17 21 28 9 65 26 83 37 30
18 32 22 18 36 -9 8 -20 12 -26 9 -6 -3 -32 -8 -58 -10 l-47 -4 45 23 c61 30
65 51 8 43 l-43 -6 33 15 c17 8 32 16 32 19 0 2 -15 2 -32 -1 l-33 -5 33 15
c33 15 45 31 15 19 -11 -4 -14 -3 -9 5 4 8 0 12 -11 12 -15 1 -14 3 6 14 28
16 13 31 -22 21 -12 -3 -5 4 15 15 25 13 35 25 32 35 -4 8 -10 15 -15 15 -5 0
0 9 11 20 12 12 18 25 15 29 -3 5 15 21 40 35 60 35 58 43 -2 11 -79 -41 -72
-29 15 31 188 129 321 339 337 533 2 31 2 48 -1 38 -3 -9 -10 -14 -16 -11 -7
4 -8 2 -4 -4 7 -12 -55 -115 -77 -129 -7 -4 -20 -8 -29 -9 -29 -2 -29 -3 -19
-22 8 -16 6 -18 -19 -18 l-29 0 28 35 c32 41 52 77 29 51 -7 -8 -26 -26 -42
-40 -24 -21 -27 -22 -18 -5 5 11 20 29 31 39 12 11 21 23 21 27 0 4 -23 -17
-51 -46 -28 -30 -56 -52 -61 -49 -5 3 -21 -4 -34 -17 -21 -20 -24 -21 -18 -5
5 13 4 17 -3 13 -25 -16 -4 26 32 63 31 32 37 42 26 52 -10 11 -11 9 -5 -7 7
-18 6 -19 -11 -5 -10 8 -16 10 -12 4 4 -7 0 -15 -9 -18 -8 -3 -13 -9 -10 -14
2 -4 -4 -8 -15 -8 -10 0 -19 4 -19 8 0 5 -9 4 -19 -2 -22 -11 -41 -13 -26 -2
6 4 17 16 25 26 15 19 15 19 -15 0 -26 -17 -28 -17 -22 -1 8 22 -8 22 -41 -1
-49 -34 -57 -34 -20 0 21 18 34 38 30 44 -8 12 -53 14 -46 2 7 -11 -28 -10
-46 2 -8 5 -10 10 -5 10 6 0 16 10 24 23 10 17 11 19 0 10 -20 -19 -33 -16
-18 4 13 17 13 17 -13 0 -37 -23 -46 -22 -17 3 15 12 19 19 10 20 -8 0 -4 8
10 20 29 23 22 25 -17 5 -36 -18 -41 -12 -18 22 10 15 18 31 16 35 -1 4 6 5
16 1 14 -5 15 -4 4 8 -7 8 -30 13 -54 12 l-41 -2 24 17 c31 21 52 42 45 43 -3
1 -12 2 -18 3 -7 1 -12 8 -10 14 2 10 -7 11 -34 6 -27 -5 -35 -4 -30 5 4 6 13
11 21 11 8 0 16 4 19 8 2 4 -11 6 -29 4 -61 -7 -60 4 3 27 79 30 80 45 5 38
-32 -3 -50 -3 -40 -1 24 8 21 24 -5 25 -21 1 -20 2 7 14 l30 14 -33 1 c-44 0
-33 14 23 30 l46 13 -38 19 c-21 10 -31 16 -22 14 9 -2 16 2 16 10 0 8 -11 14
-26 15 -23 1 -22 2 7 9 48 11 51 20 6 21 l-39 1 45 16 45 17 -40 5 c-39 6 -39
7 -15 18 14 6 19 11 11 11 -8 1 -11 7 -7 18 4 9 1 20 -6 25 -9 5 -8 8 6 8 15
0 16 3 7 14 -10 11 -8 15 6 19 14 4 12 5 -6 6 -16 1 -21 5 -17 16 3 10 -1 15
-12 16 -12 0 -9 4 8 11 23 9 24 11 5 17 -19 8 -19 8 0 19 19 11 19 11 -5 12
l-25 1 25 14 c16 9 19 14 10 15 -15 0 -23 40 -8 40 4 0 5 7 2 15 -4 10 0 15
12 15 17 0 16 1 -2 15 -16 13 -17 16 -4 25 13 9 13 11 0 20 -13 8 -12 10 3 10
9 0 17 5 17 10 0 6 -6 10 -13 10 -8 0 -14 7 -14 15 0 10 11 15 36 16 l36 1
-38 12 c-29 9 -35 14 -25 24 6 6 19 12 28 13 8 0 4 5 -10 11 -25 11 -25 11 -2
15 26 5 29 20 5 26 -13 3 -12 5 5 6 14 1 21 5 16 12 -3 6 0 15 7 20 11 7 9 9
-6 9 -17 0 -17 2 -5 10 13 8 13 11 1 19 -7 5 -11 13 -7 19 3 6 0 13 -6 15 -7
3 -2 6 12 7 14 1 19 4 12 7 -18 7 -4 23 21 24 21 0 21 1 2 9 l-20 9 20 0 c17
1 17 3 5 11 -12 8 -9 10 13 10 19 0 26 4 21 12 -5 8 0 9 17 5 23 -6 23 -5 5 8
-27 20 -30 48 -5 40 11 -4 19 -2 19 4 0 6 -6 11 -12 12 -10 0 -10 2 0 6 17 7
15 21 -5 27 -10 3 -4 4 12 2 17 -2 37 -5 45 -8 8 -3 12 -3 7 -1 -4 3 -5 9 -2
14 4 5 -2 6 -11 2 -13 -5 -15 -3 -9 7 5 8 4 11 -3 6 -6 -3 -14 -1 -18 5 -7 13
23 9 60 -6 14 -6 17 -5 12 3 -4 7 -1 12 8 12 8 0 18 -4 21 -10 3 -5 16 -15 28
-20 35 -17 -30 31 -76 57 l-39 22 33 -1 c19 0 51 -9 73 -20 21 -11 48 -21 59
-24 11 -2 32 -14 46 -26 25 -22 25 -22 -1 8 -16 16 -28 33 -28 36 0 9 28 4 37
-7 4 -4 2 -5 -4 -1 -20 11 -15 1 9 -20 19 -15 20 -16 9 -1 -17 21 2 23 23 1 9
-8 16 -11 16 -7 0 5 -11 19 -25 31 -14 12 -25 28 -25 34 0 7 5 5 11 -6 9 -15
13 -16 20 -5z m1209 -22 c-39 -35 -40 -37 -8 -14 35 25 98 40 98 24 0 -14 -34
-19 -42 -7 -5 8 -7 2 -4 -15 4 -22 2 -27 -9 -23 -8 3 -14 1 -12 -4 1 -5 -7
-16 -18 -25 -19 -16 -18 -16 8 -1 15 9 38 23 51 31 13 9 30 13 39 10 8 -4 18
-2 22 4 3 6 11 11 18 11 6 0 1 -7 -11 -16 -12 -8 -26 -13 -30 -10 -5 3 -9 -1
-9 -9 0 -18 2 -18 28 -4 11 5 28 9 37 7 12 -3 5 -10 -23 -26 -27 -16 -32 -21
-15 -17 22 5 23 4 8 -7 -9 -7 -25 -18 -35 -25 -10 -7 13 -1 51 13 68 25 104
28 47 4 -45 -18 -94 -57 -82 -65 6 -3 11 -2 11 3 0 5 6 9 13 10 6 0 30 4 51 8
33 6 38 5 33 -8 -4 -12 0 -15 16 -11 15 3 10 -3 -13 -17 l-35 -21 35 6 35 5
-30 -15 c-24 -11 -26 -14 -10 -15 17 0 18 -2 5 -11 -11 -8 -6 -9 20 -5 29 5
31 4 13 -4 -31 -13 -29 -18 5 -13 l27 4 -30 -16 -30 -15 40 5 40 4 -50 -18
-50 -19 35 -4 35 -4 -32 -8 c-18 -5 -33 -12 -33 -16 0 -3 15 -5 33 -3 l32 3
-30 -15 -30 -14 35 -1 c33 -1 34 -1 16 -15 -14 -11 -16 -15 -5 -15 10 -1 9 -5
-5 -15 -18 -14 -16 -15 30 -16 l49 -1 -32 -11 c-18 -7 -38 -18 -45 -24 -9 -10
-6 -13 17 -14 17 -1 23 -3 13 -6 -21 -5 -23 -14 -6 -31 9 -9 9 -12 -1 -12 -7
0 -10 -4 -7 -9 4 -5 0 -12 -6 -14 -7 -3 -2 -6 12 -7 14 -1 19 -4 12 -7 -6 -2
-10 -9 -6 -14 3 -5 -5 -9 -18 -10 -15 0 -18 -3 -8 -6 8 -3 23 -14 33 -24 17
-18 17 -19 -10 -20 -21 -1 -23 -3 -8 -6 30 -7 43 -23 20 -24 -17 0 -16 -2 5
-11 24 -10 24 -10 5 -18 -19 -7 -19 -8 -2 -15 15 -6 16 -10 5 -16 -10 -7 -11
-9 0 -9 7 0 10 -5 7 -10 -4 -6 -10 -8 -15 -5 -4 3 -6 -4 -3 -14 3 -13 -1 -21
-14 -24 -13 -3 -12 -5 7 -6 24 -2 24 -2 6 -16 -12 -9 -15 -15 -7 -15 7 0 11
-6 8 -14 -3 -8 -1 -17 6 -20 7 -2 -1 -5 -18 -6 l-30 -1 25 -14 c23 -13 23 -14
5 -16 -14 -1 -11 -4 10 -9 28 -7 28 -8 5 -9 l-25 -1 23 -18 c25 -19 21 -35 -6
-24 -15 5 -15 4 -3 -11 12 -15 12 -19 -5 -32 -10 -8 -23 -15 -27 -15 -18 0 6
-20 24 -20 11 0 17 -5 14 -10 -3 -6 1 -13 9 -16 9 -3 13 -10 10 -15 -3 -5 -9
-7 -14 -4 -11 7 -33 -22 -26 -33 3 -5 30 -22 61 -37 61 -31 66 -44 11 -25 -27
9 -44 9 -71 0 -24 -8 -40 -8 -54 -1 -14 8 -19 8 -17 -2 3 -20 16 -37 29 -37 7
0 6 4 -3 10 -8 5 -10 10 -5 10 6 0 16 -4 23 -9 22 -13 -15 -23 -40 -10 -11 6
-22 8 -26 5 -3 -3 -1 -6 4 -6 5 0 20 -9 34 -20 24 -20 24 -20 -29 0 -30 12
-60 24 -65 27 -27 15 14 -18 64 -51 62 -41 60 -47 -3 -14 -50 26 -65 29 -73
17 -3 -5 1 -9 8 -9 7 -1 29 -15 48 -31 l35 -31 -55 26 -55 27 30 -26 c17 -14
47 -35 68 -46 20 -11 37 -22 37 -25 0 -3 -35 13 -77 35 -61 31 -72 35 -50 16
16 -14 26 -29 23 -34 -3 -4 3 -16 13 -26 19 -16 19 -16 16 2 -1 10 -8 17 -15
15 -6 -1 -9 2 -5 8 7 11 26 3 60 -25 20 -16 20 -16 -2 -6 -30 15 -32 14 -28
-10 l4 -20 -37 21 -37 22 29 -31 c31 -32 29 -39 -5 -21 -29 16 -23 3 19 -37
34 -33 34 -34 7 -18 -16 10 -49 33 -71 52 -40 32 -74 37 -74 10 0 -6 -7 -2
-15 9 -8 10 -15 15 -15 10 0 -5 -8 -2 -17 5 -16 13 -17 12 -5 -3 14 -18 0 -34
-20 -22 -7 4 -8 3 -4 -4 15 -24 -13 -11 -35 16 l-21 27 6 -25 7 -25 -21 25
c-26 30 -17 11 23 -50 l30 -45 -29 28 c-17 15 -35 27 -42 27 -12 0 -16 14 -13
35 1 6 -5 3 -14 -6 -14 -14 -15 -20 -5 -40 12 -23 12 -23 -14 3 -26 25 -28 34
-37 160 -6 73 -9 381 -7 683 l3 550 23 38 c13 20 26 37 28 37 2 0 -4 -19 -12
-42 -9 -24 -20 -56 -25 -73 l-9 -30 19 24 c13 17 20 20 23 11 3 -9 20 3 47 33
24 26 49 46 55 45 6 -2 26 8 44 22 17 13 42 25 54 27 12 2 24 6 27 8 2 3 7 5
10 5 3 0 -14 -18 -39 -41z m475 -168 c7 -12 -12 -24 -25 -16 -11 7 -4 25 10
25 5 0 11 -4 15 -9z m426 -44 c-13 -13 -26 -3 -16 12 3 6 11 8 17 5 6 -4 6
-10 -1 -17z m279 -141 c0 -2 -8 -10 -17 -17 -16 -13 -17 -12 -4 4 13 16 21 21
21 13z m-263 -172 c-3 -3 -12 -4 -19 -1 -8 3 -5 6 6 6 11 1 17 -2 13 -5z
m-4399 -340 c4 -18 3 -18 -13 1 -16 19 -16 19 -11 -10 5 -25 4 -27 -5 -12 -13
22 -4 50 14 45 6 -3 14 -13 15 -24z m5682 10 c0 -8 -4 -13 -9 -10 -5 4 -12 0
-14 -6 -4 -8 -6 -7 -6 4 -1 14 6 21 27 27 1 1 2 -6 2 -15z m-4315 -164 c3 -5
-1 -10 -9 -10 -9 0 -16 5 -16 10 0 6 4 10 9 10 6 0 13 -4 16 -10z m-1078 -72
c-3 -7 -5 -2 -5 12 0 14 2 19 5 13 2 -7 2 -19 0 -25z m3950 16 c-3 -3 -12 -4
-19 -1 -8 3 -5 6 6 6 11 1 17 -2 13 -5z m-2890 -40 c-9 -9 -28 6 -21 18 4 6
10 6 17 -1 6 -6 8 -13 4 -17z m-187 -90 c0 -8 -4 -12 -10 -9 -5 3 -10 10 -10
16 0 5 5 9 10 9 6 0 10 -7 10 -16z m2295 -215 c-4 -6 3 -21 16 -35 12 -13 18
-24 13 -24 -5 0 -15 9 -22 20 -8 13 -18 17 -29 13 -16 -6 -16 -4 1 15 20 23
32 29 21 11z m65 -9 c0 -5 -2 -10 -4 -10 -3 0 -8 5 -11 10 -3 6 -1 10 4 10 6
0 11 -4 11 -10z m-139 -17 c13 -16 12 -17 -3 -4 -17 13 -22 21 -14 21 2 0 10
-8 17 -17z m-1301 -27 c0 -2 -7 -7 -16 -10 -8 -3 -12 -2 -9 4 6 10 25 14 25 6z
m-965 -46 c-3 -5 -14 -10 -23 -9 -14 0 -13 2 3 9 27 11 27 11 20 0z m15 -73
c0 -4 -11 0 -25 10 -13 10 -25 22 -25 26 0 4 11 0 25 -10 13 -10 25 -22 25
-26z m235 13 c3 -5 1 -10 -4 -10 -6 0 -11 5 -11 10 0 6 2 10 4 10 3 0 8 -4 11
-10z m-135 -26 c0 -8 -4 -12 -10 -9 -5 3 -10 10 -10 16 0 5 5 9 10 9 6 0 10
-7 10 -16z m830 -14 c0 -5 -4 -10 -10 -10 -5 0 -10 5 -10 10 0 6 5 10 10 10 6
0 10 -4 10 -10z m2387 -6 c-3 -3 -12 -4 -19 -1 -8 3 -5 6 6 6 11 1 17 -2 13
-5z m-3167 -48 c0 -3 -4 -8 -10 -11 -5 -3 -10 -1 -10 4 0 6 5 11 10 11 6 0 10
-2 10 -4z m3020 -46 c0 -5 -4 -10 -10 -10 -5 0 -10 5 -10 10 0 6 5 10 10 10 6
0 10 -4 10 -10z m-2540 -10 c0 -5 -2 -10 -4 -10 -3 0 -8 5 -11 10 -3 6 -1 10
4 10 6 0 11 -4 11 -10z m1991 -23 c-1 -12 -15 -9 -19 4 -3 6 1 10 8 8 6 -3 11
-8 11 -12z m-2166 -7 c3 -5 1 -10 -4 -10 -6 0 -11 5 -11 10 0 6 2 10 4 10 3 0
8 -4 11 -10z m445 -10 c0 -5 -5 -10 -11 -10 -5 0 -7 5 -4 10 3 6 8 10 11 10 2
0 4 -4 4 -10z m154 -58 c3 -5 -1 -9 -9 -9 -8 0 -12 4 -9 9 3 4 7 8 9 8 2 0 6
-4 9 -8z m-108 -17 c-1 -8 -6 -18 -11 -22 -4 -4 -5 -2 -1 5 9 15 6 15 -37 -3
-20 -8 -44 -15 -54 -14 -10 0 9 11 42 23 33 13 61 24 62 25 1 0 0 -6 -1 -14z
m-166 -45 c-14 -4 -34 -8 -45 -8 -16 0 -15 2 5 8 14 4 34 8 45 8 16 0 15 -2
-5 -8z m160 -160 c-8 -5 -19 -10 -25 -10 -5 0 -3 5 5 10 8 5 20 10 25 10 6 0
3 -5 -5 -10z m2870 -103 c0 -2 -10 -12 -22 -23 l-23 -19 19 23 c18 21 26 27
26 19z m-3050 -33 c0 -8 -4 -12 -10 -9 -5 3 -10 13 -10 21 0 8 5 12 10 9 6 -3
10 -13 10 -21z m-905 -150 c58 -66 70 -84 55 -84 -6 0 -15 10 -20 23 -5 12 -9
18 -10 12 0 -5 -11 3 -24 19 -17 20 -26 25 -31 16 -5 -8 -4 -11 2 -7 11 7 28
-22 18 -31 -7 -8 -53 44 -60 70 -4 13 -13 30 -20 38 -7 8 -17 31 -24 50 l-11
35 38 -42 c20 -23 60 -67 87 -99z m3815 112 c-5 -13 -6 -26 -4 -29 3 -3 0 -8
-7 -13 -8 -5 -10 -3 -4 6 5 9 4 11 -4 6 -6 -4 -9 -12 -5 -17 3 -5 -1 -21 -10
-34 -9 -14 -12 -26 -6 -30 5 -3 0 -21 -12 -41 -21 -35 -54 -57 -72 -46 -5 3
-6 0 -3 -6 13 -19 40 -6 80 39 35 39 37 40 21 11 -22 -39 -89 -106 -78 -79 3
10 3 17 -2 15 -5 -1 -20 2 -33 6 -16 6 -26 4 -32 -5 -6 -9 -9 -10 -9 -2 0 6
12 26 27 45 l27 33 -37 -34 c-20 -19 -37 -30 -37 -25 0 17 86 95 95 87 4 -5 5
-3 2 3 -5 9 96 134 109 134 2 0 -1 -11 -6 -24z m-4160 -94 c7 2 22 -13 33 -32
20 -33 20 -34 2 -20 -11 8 -27 23 -37 33 -10 9 -22 17 -28 17 -5 0 -10 5 -10
11 0 8 4 8 14 0 8 -6 20 -10 26 -9z m29 -89 c-6 -7 -16 -10 -23 -6 -17 10 4
-10 49 -44 22 -17 51 -34 64 -38 27 -8 133 -73 142 -87 3 -6 9 -9 13 -9 3 1
39 -17 79 -39 39 -22 68 -40 64 -40 -11 0 -210 100 -277 140 -77 45 -242 161
-237 166 2 2 23 -2 45 -10 23 -8 41 -12 41 -8 -4 27 3 30 26 10 19 -16 22 -25
14 -35z m4306 37 c-8 -13 1 -13 27 1 15 8 26 8 44 -1 12 -7 30 -10 38 -7 35
14 12 -6 -66 -57 -92 -60 -269 -158 -275 -152 -2 2 21 16 51 32 30 16 52 33
49 38 -3 5 -1 6 5 2 7 -4 12 -3 12 2 0 5 6 9 14 9 20 0 135 86 136 101 0 7
-14 12 -37 12 -36 1 -37 2 -19 15 23 17 30 19 21 5z m-2530 -126 c-36 -28 -61
-36 -30 -10 17 14 35 25 40 25 6 0 1 -7 -10 -15z m165 -48 c0 -2 -8 -10 -17
-17 -16 -13 -17 -12 -4 4 13 16 21 21 21 13z m-180 -10 c0 -2 -8 -10 -17 -17
-16 -13 -17 -12 -4 4 13 16 21 21 21 13z m1625 -116 c-3 -5 -10 -10 -16 -10
-5 0 -9 5 -9 10 0 6 7 10 16 10 8 0 12 -4 9 -10z m-2955 -10 c8 -5 11 -10 5
-10 -5 0 -17 5 -25 10 -8 5 -10 10 -5 10 6 0 17 -5 25 -10z m158 -59 c42 -16
91 -34 107 -40 l30 -11 -29 5 c-18 4 -38 0 -55 -11 -26 -17 -26 -17 -8 3 17
20 16 21 -58 48 -41 15 -75 29 -75 31 0 7 10 4 88 -25z m179 -57 c-3 -3 -12
-4 -19 -1 -8 3 -5 6 6 6 11 1 17 -2 13 -5z m-140 -70 c-3 -3 -12 -4 -19 -1 -8
3 -5 6 6 6 11 1 17 -2 13 -5z m-34 -166 c-6 -42 -24 -63 -21 -25 1 15 6 27 10
27 4 0 7 3 7 8 -2 11 1 22 5 22 2 0 2 -15 -1 -32z m77 17 c-10 -12 -8 -16 14
-25 14 -5 26 -16 26 -24 0 -9 6 -13 14 -10 8 3 23 1 33 -5 17 -10 17 -10 -2
-12 -11 -1 -24 -3 -30 -4 -5 -2 -23 -3 -38 -4 -17 -1 -26 -5 -22 -12 4 -6 -2
-5 -14 3 -25 15 -50 4 -67 -31 -11 -22 -11 -22 -17 -2 -3 14 0 21 9 21 7 0 23
14 36 30 12 17 31 30 42 31 16 0 17 2 6 7 -24 11 -22 52 3 52 16 0 17 -3 7
-15z m-30 -119 c0 -2 -7 -9 -15 -16 -13 -11 -14 -10 -9 4 5 14 24 23 24 12z
m60 0 c0 -2 -8 -10 -17 -17 -16 -13 -17 -12 -4 4 13 16 21 21 21 13z m-153
-78 c-2 -13 -4 -3 -4 22 0 25 2 35 4 23 2 -13 2 -33 0 -45z m224 37 c-18 -8
-36 -15 -40 -15 -13 1 45 29 59 29 8 0 0 -6 -19 -14z m85 -1 c18 -14 18 -14
-6 -3 -31 14 -36 19 -24 19 6 0 19 -7 30 -16z m-150 -27 c-43 -27 -87 -71 -92
-93 -3 -13 -10 -21 -15 -18 -6 3 -7 -6 -4 -23 l6 -28 -15 25 c-18 30 -20 41
-6 38 6 -2 23 15 38 37 15 22 43 48 62 57 40 20 54 22 26 5z m204 3 c0 -5 -5
-10 -11 -10 -5 0 -7 5 -4 10 3 6 8 10 11 10 2 0 4 -4 4 -10z"/>
<path d="M2690 4056 c0 -4 7 -14 15 -22 8 -9 15 -11 15 -6 0 5 -7 15 -15 22
-8 7 -15 9 -15 6z"/>
<path d="M2661 2524 c-18 -23 -23 -25 -38 -13 -17 13 -17 13 -3 -6 8 -11 15
-21 16 -23 1 -1 13 13 28 33 15 19 25 35 22 35 -2 0 -14 -12 -25 -26z"/>
<path d="M2581 2496 c-9 -10 -9 -16 -1 -21 16 -10 31 7 21 23 -6 10 -10 10
-20 -2z"/>
<path d="M2715 2480 c-3 -5 -1 -10 4 -10 6 0 11 5 11 10 0 6 -2 10 -4 10 -3 0
-8 -4 -11 -10z"/>
<path d="M2561 1984 c-18 -8 -40 -13 -47 -10 -10 4 -11 0 -2 -19 9 -19 14 -22
32 -14 16 8 67 62 54 58 -2 0 -18 -7 -37 -15z"/>
<path d="M2570 1630 c-9 -6 -10 -10 -3 -10 6 0 15 5 18 10 8 12 4 12 -15 0z"/>
<path d="M2865 1580 c-10 -11 -14 -20 -9 -20 5 0 15 9 22 20 7 11 11 20 9 20
-2 0 -12 -9 -22 -20z"/>
<path d="M4091 2904 c13 -16 29 -19 29 -5 0 5 -9 11 -21 14 -16 4 -18 3 -8 -9z"/>
<path d="M3920 2747 c0 -3 12 -12 26 -22 15 -9 23 -12 20 -6 -7 11 -46 35 -46
28z"/>
<path d="M3639 2676 c6 -7 8 -22 5 -32 -5 -15 -4 -16 6 -8 13 13 5 54 -12 54
-7 0 -7 -5 1 -14z"/>
</g>
</svg>
